<?xml version="1.0" encoding="utf-8"?>
<!-- Generator: Adobe Illustrator 25.3.1, SVG Export Plug-In . SVG Version: 6.00 Build 0)  -->
<svg version="1.1" xmlns="http://www.w3.org/2000/svg" xmlns:xlink="http://www.w3.org/1999/xlink" x="0px" y="0px"
	 viewBox="0 0 141 139" style="enable-background:new 0 0 141 139;" xml:space="preserve">
<style type="text/css">
	.st0{fill:url(#SVGID_1_);}
	.st1{clip-path:url(#SVGID_3_);fill:url(#SVGID_4_);}
</style>
<g id="Layer_2">
</g>
<g id="Layer_1">
	<linearGradient id="SVGID_1_" gradientUnits="userSpaceOnUse" x1="180.9734" y1="237.6922" x2="610.812" y2="237.6922">
		<stop  offset="0.2963" style="stop-color:#D9E1E2"/>
		<stop  offset="1" style="stop-color:#D9E1E2"/>
	</linearGradient>
	<path class="st0" d="M198.5,240.8c0,6,0,11.9,0,17.9c0,0.8,0.1,1.8,0.5,2.2c4.8,4.9,12.4,6.5,18.1,3.5c4.3-2.3,6.7-6.1,8.4-10.5
		c2.4-6.6,2.5-13.4,1.7-20.2c-0.6-5.2-2-10.1-5.3-14.4c-5.9-7.8-16.4-7.8-22.1,0.2c-0.7,1-1.2,2.4-1.2,3.6
		C198.5,229,198.5,234.9,198.5,240.8 M198.5,217.9c1.2-1.1,2.2-2,3.1-2.9c11.4-10.4,29.4-6.5,35.9,7.7c5.6,12.1,5.3,24.5-1.6,36.1
		c-7.8,13.1-24.1,15.4-35.8,5.6c-0.4-0.3-0.8-0.7-1.2-1c-1.8,5.6,0.5,18.8,4.6,25.6c-0.7,0.1-1.3,0.2-2,0.2c-4.6,0-9.3-0.1-13.9,0
		c-1.8,0-2.2-0.5-2.2-2.2c0.3-16.5,0.5-32.9,0.5-49.4c0-4.1-0.5-8.3-1.4-12.4c-0.5-2.5-2.3-4.7-3.6-7.3c5.5-2.7,11.3-5.5,17.5-8.5
		V217.9z M374.6,269.4h-18.3c-0.8-4-1.5-8.1-2.3-12.1c-2.2-11.2-4.5-22.4-6.8-33.5c-0.3-1.6-1-3.2-1.7-4.7c-2.3-4.8-6.9-6.5-11.6-4
		c-1.8,0.9-3.3,2.4-4.8,3.7c-0.5,0.4-0.7,1.4-0.7,2.1c0,10.9,0,21.8,0.2,32.7c0.1,5.9,1.7,10.8,4.8,15.7h-18.1c0-0.7,0-1.4,0-2.1
		c0.2-9.6,0.4-19.2,0.5-28.9c0.1-7.2,0.1-14.4-5.5-20.4c6-2.9,11.8-5.8,18.1-8.8v8.5c1.1-1.2,1.9-2,2.6-2.7
		c5.4-5.5,13.8-7.4,20.3-4.6c4.1,1.7,6.4,5,7.6,9c2,6.7,3.5,13.5,5.1,20.2c1.2,5.3,2.2,10.7,3.5,15.9
		C368.5,260.6,370.5,265.3,374.6,269.4 M425.6,221.2c-4.6,4.5-7.8,9.8-8.9,16.2c-1.1,6.5-0.5,12.7,3.1,18.4
		c4.5,7.1,15.2,8.8,21.7,3.5c0.8-0.6,1.3-1.2,0.9-2.3c-4.6-12.5-9.2-25-13.9-37.5c-1.3-3.4-3.6-6.1-7.5-6.8
		c-1.6-0.3-3.3-0.2-5.4-0.3c2.9-1.9,5.7-2.8,8.7-3c9.7-0.7,15.1,2.7,18.6,11.8c4.1,10.8,8.1,21.7,12.2,32.6c2,5.4,3.8,10.9,7.8,15.7
		c-5.4,0-10.4,0-15.4-0.1c-0.4,0-1-0.8-1.2-1.3c-1-2.7-1.8-5.4-2.8-8.4c-0.4,0.5-0.8,0.9-1,1.3c-4.9,7.7-12,10.3-20.7,9
		c-13.6-2-20.8-13.9-16.9-27.7c2.1-7.5,6.9-13.1,13.2-17.4c2.3-1.6,4.9-2.9,7.3-4.3C425.4,220.8,425.5,221,425.6,221.2 M565.8,239.2
		c0.9-1.4,1.6-2.9,2.6-4.3c3.9-5.3,9.3-8.6,15-11.7c2-1.1,3.9-2.3,5.6-3.7c3.4-3,2.6-6.8-1.8-8.2c-5.1-1.6-9.9-0.7-14.1,2.6
		c-5.9,4.5-8.4,10.9-9.1,18c-0.7,6.9,0.4,13.4,5,19c3.8,4.7,8.9,7.3,14.8,8.2c5.2,0.8,10.2,0.3,15-2c6.4-3,10.2-8.1,11.9-14.9
		c0.4,2.1-0.4,6.2-1.9,9.9c-5.2,12.5-17.9,19.9-31.2,18.1c-14-1.9-24.2-11.9-26-25.6c-2.2-16.6,7.4-30.7,23.6-34.6
		c6.7-1.6,13.4-1.1,19.7,1.7c4,1.8,7.6,4.3,7.3,9.4c-0.2,4.8-3.8,7.1-7.7,8.6c-2.6,1-5.4,1.8-8.2,2.4c-7.1,1.6-14.1,3.3-20.2,7.5
		C566,239.4,565.9,239.3,565.8,239.2 M307.2,241.4c-0.4,8.9-3.7,16.5-10.7,22.1c-10.1,8.2-21.4,9.1-32.8,3.5
		c-11.2-5.5-16.3-15.2-16.2-27.6c0.3-17.9,14.7-31.2,32.7-30.3c4.2,0.2,8.2,1,11.9,2.9c3.6,1.8,6.5,4.4,6.4,8.8
		c-0.1,4.3-3.1,6.9-6.8,8.3c-3.9,1.5-8.1,2.6-12.2,3.6c-6.1,1.4-12,3.3-17.7,6.6c0.9-1.5,1.7-3.1,2.8-4.5c3.9-5.2,9.2-8.5,14.8-11.5
		c1.8-1,3.6-2.1,5.2-3.3c1.6-1.2,3-2.8,2.5-5.1c-0.5-2.3-2.4-3.3-4.4-3.8c-5.3-1.3-10.1-0.1-14.3,3.5c-9.8,8.2-11.9,28.5-1.3,38.4
		c10.2,9.5,28,8.3,36.1-2.7c1-1.3,1.7-2.8,2.4-4.3C306.3,244.4,306.7,242.9,307.2,241.4 M521,242.7c-0.2,4.4-1.5,8.3-3.4,12
		c-6,11.2-18.1,17.3-30.5,15.4c-12.9-2-22.5-11.2-25-23.8c-2.6-13.4,3.1-26.7,14.4-33.2c4.4-2.6,9.3-3.8,14.4-4
		c8.2-0.2,16,1.2,23.2,5.3c0.6,0.3,1.3,1.1,1.3,1.7c0.1,5.4,0.1,10.8-0.3,16.3c-0.4-0.9-0.8-1.8-1.2-2.7c-3-6.4-6.9-12.1-13.1-15.9
		c-11.4-7-23.5-2-26.8,11c-3,11.7,1,23.8,10,30.3c10.6,7.6,26.6,5.3,33.4-4.9C518.7,247.8,519.7,245.3,521,242.7 M523.7,195.1
		c5.9-2.9,11.6-5.7,17.8-8.8c0,1.1,0,1.8,0,2.5c0,20.7,0,41.3,0.1,62c0,3.1,0.3,6.3,1,9.3c0.8,3.2,2.2,6.2,3.4,9.3
		c0,0-0.5,0.1-0.9,0.1c-4.8,0-9.7-0.1-14.5,0c-1.8,0-2.2-0.5-2.2-2.2c0.3-17.5,0.6-35.1,0.7-52.6c0.1-5.3-0.2-10.5-2.6-15.4
		C525.7,197.9,524.7,196.6,523.7,195.1 M400.5,269.1c-4.8,0.4-9.2-0.5-13.2-3.2c-6.4-4.4-8.8-11.1-9-18.4
		c-0.3-11.3-0.2-22.7-0.2-34.1c0-0.8,0-1.7,0-2.8H371c-0.1-0.2-0.1-0.4-0.2-0.6c8.5-2.8,15.4-7.5,19.7-15.8v15.3h10
		c0,0.3,0,0.6,0,0.9c-3.2,0.6-6.5,0-9.7,0.4c0,0.7-0.1,1.3-0.1,1.9c0,11.4-0.1,22.7,0.1,34.1c0,3.5,0.4,7,1.1,10.5
		C392.9,262.4,394.8,267.2,400.5,269.1"/>
	<g>
		<defs>
			<path id="SVGID_2_" d="M70.2,93.9l7.8,13.6H62.3L70.2,93.9z M53.7,112.4h33L70.2,83.9L53.7,112.4z M100.5,62.4l-44,7.8l-5.8-4
				l-7,1.2l5.8,4L46,72l-5.8-4l-7,1.2l5.8,4l-3.7,0.7l-5.8-4l-7,1.2l8.6,6l-6.1,8.7l7-1.2l4-5.7l3.7-0.7l-4,5.7l7-1.2l4-5.7l3.6-0.6
				l-4,5.7l7-1.2l4-5.7l44.1-7.8l-1.2,5.2l16-10.3l-18.6-4.2L100.5,62.4z M66.3,37.7H53.7l10.2,7.4l-3.9,12l1.7-1.2l0,0l0,0l8.5-6.2
				l10.2,7.4l-3.9-12l10.2-7.4H74.1l-3.9-12L66.3,37.7z M15.5,70.3c0-30.2,24.5-54.7,54.7-54.7s54.7,24.5,54.7,54.7
				c0,30.2-24.5,54.7-54.7,54.7S15.5,100.5,15.5,70.3 M70.3,5L70.3,5L70.3,5l-4,6.7l-4.7-6.2l-3,7.1l-5.5-5.5l-2,7.5L45,10l-1,7.7
				l-6.7-3.9l0,7.8l-7-2.9l1,7.4L24,24.2l1.9,7.3l-7.5-1l2.9,6.9l-7.5,0l3.8,6.5l-7.4,1l4.7,6.1l-7.6,2l5.5,5.5l-7.3,3l6.2,4.8
				l-6.8,4l0,0l0,0l6.8,4L5.5,79l7.3,3l-5.5,5.5l7.6,2l-4.7,6.1l7.4,1l-3.8,6.5l7.5,0l-2.9,6.9l7.5-1l-1.9,7.3l7.3-1.9l-1,7.4l7-2.9
				l0,7.8l6.7-3.9l1,7.7l6.1-4.7l2,7.5l5.5-5.5l3,7.1l4.7-6.2l3.9,6.7l0-0.1l0,0.1l3.9-6.7l4.7,6.2l3-7.1l5.5,5.5l2-7.5l6.1,4.7
				l1-7.7l6.7,3.9l0-7.8l7,2.9l-1-7.4l7.3,1.9l-1.9-7.3l7.5,1l-2.9-6.9l7.5,0l-3.8-6.5l7.4-1l-4.7-6.1l7.6-2l-5.5-5.5l7.3-3
				l-6.2-4.8l6.8-4l0,0l0,0l-6.8-4l6.2-4.8l-7.3-3l5.5-5.5l-7.6-2l4.7-6.1l-7.4-1l3.8-6.5l-7.5,0l2.9-6.9l-7.5,1l1.9-7.3l-7.3,1.9
				l1-7.4l-7,2.9l0-7.8l-6.7,3.9l-1-7.7l-6.1,4.7l-2-7.5l-5.5,5.5l-3-7.1l-4.7,6.2L70.3,5z"/>
		</defs>
		<clipPath id="SVGID_3_">
			<use xlink:href="#SVGID_2_"  style="overflow:visible;"/>
		</clipPath>
		
			<linearGradient id="SVGID_4_" gradientUnits="userSpaceOnUse" x1="-145.8168" y1="516.4496" x2="-144.7977" y2="516.4496" gradientTransform="matrix(128.3328 0 0 -128.3328 18717.9277 66347.75)">
			<stop  offset="0" style="stop-color:#8B9290"/>
			<stop  offset="0.2628" style="stop-color:#8E9593"/>
			<stop  offset="0.471" style="stop-color:#979F9D"/>
			<stop  offset="0.6603" style="stop-color:#A7AFAE"/>
			<stop  offset="0.8374" style="stop-color:#BEC5C5"/>
			<stop  offset="1" style="stop-color:#D9E1E2"/>
		</linearGradient>
		<rect x="4.8" y="5" class="st1" width="130.8" height="130.6"/>
	</g>
</g>
</svg>
